<?xml version="1.0" encoding="iso-8859-1"?>
<!-- Generator: Adobe Illustrator 19.0.0, SVG Export Plug-In . SVG Version: 6.00 Build 0)  -->
<svg version="1.1" id="Layer_1" xmlns="http://www.w3.org/2000/svg" xmlns:xlink="http://www.w3.org/1999/xlink" x="0px" y="0px"
	 viewBox="0 0 512 512" style="enable-background:new 0 0 512 512;" xml:space="preserve">
<g>
	<path style="fill:#944ADC;" d="M419.192,227.153c0.591-69.31-58.44-132.848-131.59-141.634l-15.863-1.93
		c-14.992,0-19,10.532-20.055,16.812c-1.026,6.107-0.047,11.235,2.904,15.249c4.965,6.751,13.701,7.949,20.718,8.91
		c2.056,0.284,3.997,0.548,5.622,0.913c65.722,14.686,87.852,37.774,98.666,102.936c0.264,1.592,0.383,3.554,0.51,5.635
		c0.472,7.789,1.455,23.996,18.878,23.996h0.001c1.45,0,3.009-0.125,4.632-0.372c16.224-2.465,15.716-17.279,15.471-24.396
		L419.192,227.153z"/>
	<path style="fill:#944ADC;" d="M276.689,10.199c-17.699,0-21.064,12.58-21.495,20.079c-0.992,17.332,15.774,18.551,23.831,19.139
		c1.947,0.141,3.789,0.274,5.324,0.51c107.922,16.597,157.553,67.73,171.308,176.495c0.234,1.849,0.27,4.104,0.308,6.492
		c0.138,8.498,0.42,26.175,19.404,26.541l0.59,0.006c5.954,0,10.69-1.795,14.078-5.34c5.909-6.182,5.497-15.365,5.165-22.745
		c-0.081-1.81-0.159-3.516-0.139-5.009c1.373-111.239-94.917-212.11-206.057-215.861L276.689,10.199z"/>
	<path style="fill:#944ADC;" d="M383.475,501.801c0.001,0,0,0,0.003,0c36.622,0,80.596-33.466,94.102-71.618
		c11.832-33.408-9.771-49.92-27.13-63.187c-2.295-1.752-4.667-3.567-6.889-5.356l-43.981-31.942
		c-15.529-10.908-29.491-16.209-42.683-16.209c-17.766,0-33.257,9.817-46.041,29.174c-5.664,8.582-12.536,12.754-21.004,12.754
		c-5.008,0-10.698-1.429-16.91-4.249c-50.126-22.731-85.92-57.583-106.389-103.587c-9.894-22.235-6.687-36.769,10.727-48.598
		c9.888-6.711,28.295-19.206,26.991-43.132c-1.476-27.171-61.427-108.924-86.686-118.21c-10.695-3.933-21.931-3.97-33.457-0.092
		C55.089,47.311,34.251,64.455,23.86,87.124c-10.041,21.904-9.587,47.622,1.312,74.377
		c31.508,77.352,75.808,144.793,131.671,200.446c54.681,54.479,119.676,104.797,199.753,132.633
		C363.168,496.862,376.576,500.89,383.475,501.801z"/>
	<path style="fill:#944ADC;" d="M273.182,159.008c-6.271,0.159-19.319,0.482-23.898,13.772c-2.142,6.21-1.886,11.603,0.763,16.027
		c3.887,6.492,11.334,8.481,18.109,9.572c24.566,3.942,37.183,17.526,39.707,42.748c1.173,11.761,9.092,19.972,19.259,19.972h0.001
		c0.751,0,1.519-0.044,2.284-0.138c12.229-1.455,18.158-10.44,17.621-26.703c0.196-16.973-8.687-36.241-23.794-51.589
		C308.076,167.276,289.803,158.606,273.182,159.008z"/>
</g>
<g>
	<path style="fill:#7C3FBA;" d="M398.983,268.239c-11.381,0-20.239-5.241-24.941-14.758c-3.394-6.871-3.847-14.35-4.118-18.819
		c-0.106-1.726-0.214-3.512-0.392-4.586c-10.18-61.341-28.856-80.802-90.829-94.65c-1.178-0.266-2.856-0.497-4.632-0.743
		l-0.159-0.021c-7.964-1.089-20.016-2.74-27.54-12.97c-3.196-4.348-6.613-11.863-4.746-22.982
		c2.664-15.856,13.921-25.322,30.113-25.322c0.411,0,0.824,0.024,1.232,0.074l15.863,1.931
		c78.13,9.384,141.192,77.503,140.558,151.846c-0.001,0.03-0.001,0.06-0.002,0.09l-0.101,5.855
		c0.143,4.179,0.318,10.981-2.234,17.666c-3.546,9.288-11.325,15.291-21.907,16.899C403.02,268.075,400.944,268.239,398.983,268.239
		z M271.168,93.794c-4.259,0.092-8.253,1.311-9.427,8.298c-0.829,4.943,0.595,6.88,1.064,7.517c2.408,3.276,8.504,4.11,13.882,4.847
		l0.17,0.022c2.214,0.306,4.306,0.595,6.308,1.044c36.643,8.187,59.091,18.785,75.047,35.432
		c15.992,16.683,25.394,39.348,31.442,75.784c0.351,2.118,0.492,4.441,0.628,6.688c0.787,12.992,3.379,14.415,8.697,14.415
		c0.938,0,1.981-0.087,3.099-0.256c5.355-0.814,7.188-3.045,6.814-13.963c-0.006-0.174-0.008-0.352-0.004-0.527l0.105-6.076
		c0.52-64.262-54.471-123.189-122.609-131.374L271.168,93.794z"/>
	<path style="fill:#7C3FBA;" d="M475.959,269.662c-0.04,0-0.081,0-0.12-0.001l-0.588-0.007
		c-12.203-0.234-21.397-6.011-25.966-16.267c-3.309-7.429-3.438-15.489-3.517-20.304c-0.032-2.01-0.064-4.081-0.229-5.384
		C432.3,123,386.67,75.983,282.8,60.009c-1.144-0.175-2.855-0.299-4.508-0.418c-4.595-0.335-12.267-0.894-19.15-4.348
		c-9.774-4.903-14.792-13.975-14.13-25.546C246.064,11.378,258.202,0,276.689,0c0.085,0,0.169,0.001,0.254,0.003L289.26,0.31
		c55.708,1.879,111.202,27.676,152.346,70.776c41.142,43.099,64.344,99.743,63.656,155.406c-0.015,1.165,0.052,2.672,0.123,4.269
		l0.007,0.16c0.375,8.325,0.942,20.911-7.982,30.247C492.101,266.724,484.684,269.662,475.959,269.662z M276.571,20.398
		c-6.364,0.021-10.698,1.834-11.195,10.465c-0.259,4.526,0.298,7.354,14.387,8.382c2.05,0.148,4.174,0.301,6.131,0.601
		c57.536,8.849,97.806,26.852,126.74,56.663c28.926,29.801,45.813,70.676,53.142,128.634c0.305,2.417,0.347,5.057,0.388,7.61
		c0.227,14.061,2.958,16.382,9.404,16.506l0.447,0.005c4.571-0.013,6.136-1.648,6.651-2.189c2.901-3.034,2.608-9.518,2.35-15.239
		l-0.007-0.165c-0.085-1.9-0.164-3.694-0.142-5.439C486.173,120.32,394.49,24.272,288.664,20.7L276.571,20.398z"/>
	<path style="fill:#7C3FBA;" d="M383.477,512c-0.447,0-0.896-0.029-1.338-0.088c-7.919-1.044-21.924-5.278-28.893-7.701
		c-70.342-24.453-136.941-68.624-203.603-135.04C92.81,312.551,47.753,243.975,15.725,165.346
		C3.737,135.919,3.345,107.4,14.588,82.873c11.596-25.295,34.517-44.309,66.289-54.991c13.763-4.631,27.299-4.568,40.229,0.187
		c20.256,7.446,48.724,44.699,56.967,55.94c8.237,11.232,35.204,49.569,36.384,71.29c1.618,29.681-20.715,44.839-31.447,52.124
		c-11.263,7.65-16.043,15.997-7.136,36.012c19.423,43.656,53.5,76.777,101.282,98.445c4.813,2.185,9.203,3.338,12.698,3.338
		c3.509,0,7.737-0.971,12.492-8.175c14.794-22.398,33.147-33.754,54.552-33.754c15.363,0,31.241,5.908,48.545,18.063
		c0.044,0.031,0.088,0.062,0.131,0.094l43.981,31.94c0.138,0.101,0.273,0.203,0.404,0.31c2.159,1.739,4.562,3.575,6.683,5.193
		c17.867,13.657,44.864,34.291,30.554,74.699c-7.187,20.301-22.038,39.772-41.82,54.827C425.391,503.624,403.408,512,383.477,512z
		 M101.022,44.881c-4.459,0-9.017,0.779-13.642,2.335c-26.302,8.843-45.059,24.112-54.248,44.157
		c-8.839,19.279-8.325,42.198,1.486,66.279c30.991,76.084,74.536,142.387,129.424,197.069
		c64.442,64.203,128.522,106.801,195.904,130.224c6.492,2.257,18.24,5.728,24.222,6.652c32.091-0.437,71.875-31.133,83.799-64.817
		c8.703-24.573-3.737-36.416-23.709-51.681c-2.152-1.644-4.587-3.503-6.892-5.355L393.656,338
		c-13.726-9.63-25.75-14.312-36.756-14.312c-14.323,0-26.599,8.045-37.531,24.595c-7.59,11.5-17.521,17.333-29.514,17.333
		c-6.473,0-13.581-1.736-21.126-5.162c-52.465-23.791-89.977-60.373-111.492-108.728c-11.832-26.588-7.15-46.6,14.315-61.181
		c11.907-8.082,23.451-17.372,22.537-34.141c-0.454-8.356-10.807-30.802-32.465-60.335c-21.642-29.512-39.823-46.014-47.556-48.856
		C109.837,45.659,105.479,44.881,101.022,44.881z"/>
	<path style="fill:#7C3FBA;" d="M327.124,271.299c-15.357,0-27.726-12.263-29.41-29.16c-2.071-20.707-11.104-30.469-31.173-33.689
		c-8.567-1.381-19.172-4.265-25.243-14.404c-2.934-4.901-5.603-13.145-1.655-24.591c6.881-19.972,26.742-20.477,33.269-20.642
		c0.005-0.001,0.02-0.001,0.024-0.001c19.397-0.463,40.394,9.265,57.566,26.706c16.894,17.163,26.874,39.064,26.727,58.632
		c0.906,30.37-18.3,35.952-26.617,36.942C329.493,271.227,328.307,271.299,327.124,271.299z M273.429,169.203
		c-8.112,0.206-12.583,1.33-14.501,6.9c-1.681,4.872-0.513,6.823-0.13,7.465c1.381,2.307,4.665,3.725,10.98,4.742
		c29.03,4.658,45.26,22.087,48.233,51.802c0.535,5.373,3.56,10.789,9.111,10.789c0.359,0,0.711-0.021,1.046-0.062
		c3.225-0.385,9.165-1.09,8.666-16.243c-0.005-0.151-0.007-0.302-0.005-0.453c0.165-14.309-7.634-30.876-20.865-44.317
		C302.734,176.387,287.26,168.901,273.429,169.203L273.429,169.203z"/>
	<path style="fill:#7C3FBA;" d="M236.624,397.86c-2.121,0-4.26-0.659-6.091-2.025c-19.248-14.359-38.091-30.792-57.609-50.238
		c-15.165-15.108-29.422-31.547-42.375-48.86c-3.374-4.51-2.453-10.902,2.057-14.276c4.511-3.375,10.902-2.454,14.277,2.057
		c12.363,16.526,25.968,32.214,40.438,46.63c18.824,18.754,36.949,34.565,55.409,48.338c4.515,3.369,5.444,9.759,2.077,14.274
		C242.803,396.442,239.732,397.86,236.624,397.86z"/>
	<path style="fill:#7C3FBA;" d="M114.626,265.18c-3.44,0-6.798-1.74-8.719-4.894c-1.89-3.102-3.765-6.258-5.57-9.381
		c-2.82-4.876-1.153-11.115,3.724-13.935c4.876-2.819,11.115-1.153,13.935,3.724c1.729,2.989,3.522,6.01,5.331,8.979
		c2.931,4.81,1.407,11.086-3.402,14.016C118.267,264.699,116.435,265.18,114.626,265.18z"/>
</g>
<g>
</g>
<g>
</g>
<g>
</g>
<g>
</g>
<g>
</g>
<g>
</g>
<g>
</g>
<g>
</g>
<g>
</g>
<g>
</g>
<g>
</g>
<g>
</g>
<g>
</g>
<g>
</g>
<g>
</g>
</svg>
